<svg width="238" height="211" viewBox="0 0 238 211" fill="none" xmlns="http://www.w3.org/2000/svg">
<path fill-rule="evenodd" clip-rule="evenodd" d="M36.6699 115.353C27.3457 106.894 27.3457 93.1279 36.6699 84.6692L70.8164 53.682C79.4598 45.8515 93.0307 45.349 102.424 52.028L82.5294 70.0654C64.331 86.5745 64.331 113.447 82.5179 129.946L87.7801 134.709L103.867 120.126L98.616 115.353C89.2687 106.894 89.2572 93.1174 98.616 84.6378L134.69 52.2583C144.083 45.349 157.873 45.7573 166.586 53.682L200.744 84.6692C210.068 93.1174 210.068 106.894 200.744 115.353L166.597 146.329C157.954 154.17 144.383 154.663 134.99 147.994L154.884 129.946C173.083 113.447 173.083 86.564 154.896 70.0654L149.853 65.5011L133.79 80.0944L138.809 84.6587C148.145 93.1174 148.145 106.905 138.809 115.374L104.674 146.35C95.3387 154.799 80.1637 154.788 70.828 146.34L36.6699 115.353ZM118.705 162.989C137.17 177.837 165.544 177.321 183.264 161.305L217.704 130.146C236.064 113.551 236.076 86.5206 217.704 69.9147L183.241 38.7564C165.544 22.7403 137.159 22.2138 118.693 37.0927C100.239 22.2243 71.8657 22.7403 54.1454 38.7564L19.7059 69.9147C1.34521 86.5206 1.34521 113.541 19.7059 130.146L54.157 161.315C71.8657 177.321 100.251 177.847 118.705 162.989Z" fill="white"/>
</svg>
